<?xml version="1.0" encoding="UTF-8"?>
<svg width="23px" height="23px" viewBox="0 0 23 23" version="1.1" xmlns="http://www.w3.org/2000/svg" xmlns:xlink="http://www.w3.org/1999/xlink">
    <!-- Generator: Sketch 47.1 (45422) - http://www.bohemiancoding.com/sketch -->
    <title>logo</title>
    <desc>Created with Sketch.</desc>
    <defs>
        <polygon id="path-1" points="5 7 5 18 20 18 20 7"></polygon>
    </defs>
    <g id="Page-1" stroke="none" stroke-width="1" fill="none" fill-rule="evenodd">
        <g id="Mobile" transform="translate(-26.000000, -24.000000)">
            <g id="logo" transform="translate(26.000000, 24.000000)">
                <rect id="Rectangle-2" fill="#F8FAF8" x="0" y="0" width="23" height="23"></rect>
                <g id="Page-1" transform="translate(5.000000, 7.000000)"></g>
                <mask id="mask-2" fill="">
                    <use xlink:href="#path-1"></use>
                </mask>
                <g id="Clip-2"></g>
                <path d="M15.7757279,15.7267043 C13.7755991,17.2013794 11.5205359,15.0053254 13.0347591,13.0575348 C13.0380057,13.0533946 13.0417934,13.0496307 13.0460448,13.0465444 C15.0461737,11.5719445 17.3011595,13.7678479 15.7870137,15.7157138 C15.7837671,15.7198541 15.7799794,15.7235426 15.7757279,15.7267043 L15.7757279,15.7267043 Z M20,10.686462 C20,10.6568028 19.9753414,10.6327895 19.9448853,10.6327895 L14.4174182,10.6327895 L14.4174182,10.6333917 C14.4086833,10.6333164 14.4001031,10.6327895 14.3912909,10.6327895 C13.7406596,10.6327895 13.1289101,10.793581 12.5943056,11.0754931 C12.5575883,11.0949146 12.5130636,11.068944 12.5130636,11.0283698 L12.5130636,7.05367245 C12.5130636,7.02401334 12.4883278,7 12.4578717,7 L10.6547797,7 C10.6418707,7 10.6293481,7.00436606 10.6194537,7.01242069 L8.79185777,8.49552682 C8.77137336,8.51216303 8.74169029,8.51216303 8.72120587,8.49552682 L6.89360989,7.01242069 C6.88371554,7.00436606 6.87119299,7 6.85828395,7 L5.05519196,7 C5.02473589,7 5,7.02401334 5,7.05367245 L5,14.2627185 C5,14.2923776 5.02473589,14.3163909 5.05519196,14.3163909 L6.8231126,14.3163909 C6.85356867,14.3163909 6.87822726,14.2923776 6.87822726,14.2627185 L6.87822726,9.24859726 C6.87822726,9.20305472 6.93280082,9.17821333 6.96874517,9.2073455 L8.72120587,10.6295526 C8.74169029,10.6461135 8.77137336,10.6461135 8.79185777,10.6295526 L10.5443185,9.2073455 C10.5802628,9.17821333 10.6348364,9.20305472 10.6348364,9.24859726 L10.6348364,13.8867102 C10.6348364,13.8885921 10.6346818,13.8905493 10.6344499,13.8924312 C10.6180624,14.0316183 10.6087091,14.1729131 10.6087091,14.3163909 C10.6087091,17.2106384 14.0376449,19.3260708 17.1546766,17.0197361 C17.1588508,17.0167251 17.1583097,17.0186823 17.161479,17.0146173 C18.3606287,15.4790432 18.4015202,13.8608902 17.7610152,12.6414792 C17.7422314,12.6057979 17.7688998,12.5634923 17.8100232,12.5634923 L19.9448853,12.5634923 C19.9753414,12.5634923 20,12.5394789 20,12.5098198 L20,10.686462 Z" id="Fill-1" fill="#FFFFFF" mask="url(#mask-2)"></path>
            </g>
        </g>
    </g>
</svg>
